PathFileType	4	(X/Y/Z)	C:\Users\Basilio\Documents\Thesis Gigler\squatting_fais\c3dfiles\073\SJ_pre4\markers_experimental.trc
DataRate	CameraRate	NumFrames	NumMarkers	Units	OrigDataRate	OrigDataStartFrame	OrigNumFrames
200.000000	200.000000	4	61	mm	200.000000	1136	1299
Frame#	Time	FHD			LBHD			RBHD			C7			T10			CLAV			LSHO			LUUPA			LMUPA			LDUPA			LLEP			LMEP			LRAD			LUL			LRFIN			RSHO			RUPA1			RMUPA			RDUPA			RLEP			RMEP			RRAD			RUL			RUFIN			LASI			RASI			USACR			LSACR			RSACR			LTHI1			LTHI2			LTHI3			LTHI4			LLFC			LMFC			LTIB1			LTIB2			LTIB3			LTIB4			LLMAL			LMMAL			LHEE			LMT1			LMT2			LMT5			RTHI			RTHI2			RTHI3			RTHI4			RLFC			RMFC			RTIB1			RTIB2			RTIB3			RTIB4			RLMAL			RMMAL			RHEE			RMT1			RMT2			RMT5			
		X1	Y1	Z1	X2	Y2	Z2	X3	Y3	Z3	X4	Y4	Z4	X5	Y5	Z5	X6	Y6	Z6	X7	Y7	Z7	X8	Y8	Z8	X9	Y9	Z9	X10	Y10	Z10	X11	Y11	Z11	X12	Y12	Z12	X13	Y13	Z13	X14	Y14	Z14	X15	Y15	Z15	X16	Y16	Z16	X17	Y17	Z17	X18	Y18	Z18	X19	Y19	Z19	X20	Y20	Z20	X21	Y21	Z21	X22	Y22	Z22	X23	Y23	Z23	X24	Y24	Z24	X25	Y25	Z25	X26	Y26	Z26	X27	Y27	Z27	X28	Y28	Z28	X29	Y29	Z29	X30	Y30	Z30	X31	Y31	Z31	X32	Y32	Z32	X33	Y33	Z33	X34	Y34	Z34	X35	Y35	Z35	X36	Y36	Z36	X37	Y37	Z37	X38	Y38	Z38	X39	Y39	Z39	X40	Y40	Z40	X41	Y41	Z41	X42	Y42	Z42	X43	Y43	Z43	X44	Y44	Z44	X45	Y45	Z45	X46	Y46	Z46	X47	Y47	Z47	X48	Y48	Z48	X49	Y49	Z49	X50	Y50	Z50	X51	Y51	Z51	X52	Y52	Z52	X53	Y53	Z53	X54	Y54	Z54	X55	Y55	Z55	X56	Y56	Z56	X57	Y57	Z57	X58	Y58	Z58	X59	Y59	Z59	X60	Y60	Z60	X61	Y61	Z61	

1137	5.68	-153.5007629394532	1562.8740234375	-1126.544555664063	-284.9060974121094	1609.410522460938	-1135.650756835938	-290.9214477539063	1630.766357421875	-1001.639282226563	-391.1289978027345	1531.439086914063	-1041.5048828125	-483.4816284179689	1192.744018554688	-1001.313659667969	-282.0184631347657	1424.880859375	-1035.679321289063	-322.0376586914063	1442.9267578125	-1206.999145507813	-408.8860778808595	1348.482421875	-1312.66259765625	-391.4319763183595	1301.109375	-1312.104858398438	-440.3398437500001	1296.829711914063	-1348.7373046875	-478.6670227050782	1209.252197265625	-1389.619262695313	-548.1164550781251	1197.683349609375	-1343.313354492188	-391.1184692382814	1021.037658691406	-1225.01806640625	-359.2215270996094	995.9211425781252	-1286.416259765625	-347.4826049804688	1015.653198242188	-1182.065185546875	-291.3591918945313	1473.898681640625	-866.2673339843752	-389.2969970703126	1404.037963867188	-721.3680419921876	-377.5646667480469	1356.64111328125	-713.6517333984376	-426.8086853027345	1362.904541015625	-679.7858886718751	-458.0391235351564	1288.984130859375	-631.3348388671876	-530.1145019531251	1276.653686523438	-689.7794799804689	-436.9615783691407	1050.69970703125	-756.1962890625001	-399.8100585937501	1033.931762695313	-692.6301269531251	-373.8635864257813	1034.435424804688	-793.2271118164065	-306.5716247558594	1032.243774414063	-1118.205322265625	-313.0374755859376	1027.55615234375	-863.2971191406252	-494.2450256347657	1079.814208984375	-990.136901855469	-505.3254394531251	1051.187377929688	-1018.479675292969	-508.5856933593751	1048.17724609375	-963.1164550781252	-364.6327209472657	719.6445312500001	-1197.039794921875	-336.1186523437501	640.4912719726564	-1181.596923828125	-296.9231567382813	640.7129516601564	-1150.807495117188	-368.4403991699219	591.7502441406251	-1179.7392578125	-371.3040161132813	530.5833740234376	-1186.414184570313	-378.9484863281251	513.4694213867189	-1049.101196289063	-309.4458618164063	332.1644287109376	-1144.803588867188	-365.6098327636719	287.6046752929688	-1195.584716796875	-324.1796875000001	284.1392822265626	-1176.650512695313	-316.0957336425782	205.6078033447266	-1146.274291992188	-373.9449768066407	83.09226989746095	-1170.231689453125	-354.3815612792969	107.6133041381836	-1086.658447265625	-422.2782287597657	45.6207618713379	-1120.175659179688	-195.1485748291016	67.54244232177736	-1116.603759765625	-200.7517242431641	69.51722717285158	-1153.863525390625	-240.1071014404297	39.31261444091798	-1200.498779296875	-403.1195373535157	801.0841064453127	-769.0782470703127	-366.3652954101563	747.7197875976564	-754.1998901367189	-332.6517028808594	749.3842163085939	-756.9982910156251	-390.050750732422	666.8401489257814	-764.6426391601564	-363.8410644531251	522.7189331054689	-749.7700195312501	-344.0933837890626	485.8087158203126	-873.8045043945315	-317.0552062988282	346.7912597656251	-799.0072021484377	-350.6549377441407	280.1348571777344	-720.8075561523439	-321.8226928710938	270.2561035156251	-758.2414550781251	-338.4323425292969	220.0177307128907	-782.557800292969	-394.8247375488282	96.23572540283206	-709.8702392578126	-375.3745117187501	107.6259384155274	-798.7998657226565	-456.5372619628907	50.43479156494142	-767.2504272460939	-229.8224029541016	59.62448883056642	-745.5107421875001	-235.1275329589844	63.1315040588379	-704.1817626953126	-281.0829162597657	39.06633377075196	-662.5527343750001	
1138	5.685	-153.3809356689453	1562.662475585938	-1126.146484375	-284.9579467773438	1609.349487304688	-1135.524169921875	-290.9888000488282	1630.652099609375	-1001.534851074219	-391.2857055664064	1531.485229492188	-1041.409790039063	-484.0703735351564	1192.841186523438	-1001.070190429688	-282.3597717285157	1424.781860351563	-1035.4990234375	-322.3035888671876	1442.865844726563	-1206.851196289063	-409.0894165039064	1348.386352539063	-1312.6015625	-391.6583862304689	1301.026123046875	-1312.008666992188	-440.5447998046876	1296.792236328125	-1348.669189453125	-478.918670654297	1209.182373046875	-1389.492431640625	-548.3682250976564	1197.651611328125	-1343.2275390625	-391.6365966796876	1021.042541503906	-1224.763427734375	-359.5598449707032	995.9049072265627	-1286.149169921875	-347.8955993652344	1015.618347167969	-1181.76904296875	-291.6398010253907	1473.808959960938	-866.198669433594	-389.515594482422	1404.13330078125	-721.2789916992189	-377.8298645019532	1356.691040039063	-713.5736083984376	-427.0874938964845	1363.033569335938	-679.6290893554689	-458.3918457031251	1289.216918945313	-631.1159057617189	-530.4584960937501	1276.85107421875	-689.4615478515626	-437.3038330078126	1050.826538085938	-755.9022827148439	-400.2816467285157	1034.040161132813	-692.3241577148439	-374.3189697265626	1034.574096679688	-792.9043579101565	-307.0229797363282	1032.26904296875	-1117.946166992188	-313.4302062988282	1027.706298828125	-862.9866333007815	-494.7176818847657	1079.84912109375	-989.8747558593752	-505.7957153320314	1051.269897460938	-1018.239990234375	-508.983856201172	1048.21923828125	-962.7951660156252	-365.0245361328126	719.5198974609376	-1196.68408203125	-336.3125915527344	640.5008544921876	-1181.398193359375	-297.1307373046876	640.7961425781251	-1150.675903320313	-368.6495971679688	591.6705322265626	-1179.590576171875	-371.3148193359376	530.5846557617189	-1186.235107421875	-378.8270874023438	513.4299926757814	-1048.8544921875	-309.4568786621094	332.1152648925782	-1144.655029296875	-365.4967956542969	287.6192321777344	-1195.419921875	-324.1244506835938	284.1800842285157	-1176.4814453125	-316.0675659179688	205.6121826171876	-1146.161254882813	-374.0707092285157	82.9674758911133	-1170.246948242188	-354.3876647949219	107.6001739501953	-1086.583374023438	-422.2585449218751	45.61242675781251	-1120.179321289063	-195.104476928711	67.49863433837892	-1116.5673828125	-200.7655334472657	69.46514129638673	-1153.855712890625	-240.0971069335938	39.48789978027344	-1200.665893554688	-403.4653320312501	801.1580200195315	-768.8082275390627	-366.6791076660157	747.7572021484376	-754.0514526367189	-332.9903869628907	749.4824829101564	-756.6936645507814	-390.3071899414064	666.9171752929689	-764.5540161132814	-364.1960449218751	522.7737426757814	-749.7215576171876	-344.3358764648438	485.9513244628907	-873.7033691406252	-318.1238708496094	346.6814575195313	-799.0383300781252	-351.7376708984376	280.2089233398438	-720.8059082031251	-322.9546203613282	270.1825256347657	-758.4265136718751	-339.7230834960938	219.990951538086	-782.7913208007815	-396.4581604003907	96.45133972167972	-710.0383300781251	-377.4990844726563	107.9107055664063	-799.094909667969	-458.4074707031251	50.77680587768556	-767.1635742187501	-231.5753631591797	59.32051086425783	-746.1664428710939	-236.9102630615235	63.08619689941408	-704.5210571289064	-282.8085937500001	39.07094192504884	-662.9208984375001	
1139	5.69	-153.5257110595703	1562.459106445313	-1125.863891601563	-284.9571533203126	1609.200317382813	-1135.310668945313	-290.9968261718751	1630.101318359375	-1001.286865234375	-391.5115966796876	1531.552734375	-1041.234497070313	-484.5650329589845	1192.94091796875	-1000.826904296875	-282.6869812011719	1424.645629882813	-1035.380981445313	-322.5007629394532	1442.826293945313	-1206.683959960938	-409.2837219238282	1348.387084960938	-1312.487426757813	-391.9536437988282	1300.941284179688	-1311.8125	-440.7898559570314	1296.713012695313	-1348.53515625	-479.1426696777345	1209.174194335938	-1389.268188476563	-548.6848144531251	1197.66748046875	-1343.06201171875	-392.0914306640626	1021.054016113281	-1224.450927734375	-360.0814514160157	995.849304199219	-1285.806640625	-348.4178466796876	1015.656433105469	-1181.430786132813	-291.9223937988282	1473.738525390625	-866.1156005859377	-389.7303161621095	1404.166137695313	-720.9720458984376	-378.0642700195313	1356.747314453125	-713.3750610351564	-427.2601928710939	1363.146728515625	-679.4425659179689	-458.6537475585939	1289.351440429688	-630.8646240234376	-530.8004760742189	1277.026489257813	-689.2375488281251	-437.6997375488282	1050.931640625	-755.5820922851564	-400.7060546875001	1034.153198242188	-692.0042724609376	-374.8136291503907	1034.6513671875	-792.5758056640627	-307.6008300781251	1032.280639648438	-1117.687255859375	-313.8463134765626	1027.90869140625	-862.6802978515627	-495.1805114746095	1079.92626953125	-989.6059570312502	-504.7186279296876	1050.9228515625	-1018.376342773438	-508.899627685547	1048.056274414063	-962.610046386719	-364.7994384765626	719.6461181640626	-1195.234130859375	-336.6137084960938	640.5419311523439	-1181.132446289063	-297.2483520507813	640.8457641601564	-1150.575439453125	-368.9491577148438	591.6750488281251	-1179.347045898438	-371.3948669433594	530.5186157226564	-1185.935668945313	-378.6444396972657	513.3790283203126	-1048.638427734375	-309.4107971191407	332.0957031250001	-1144.57958984375	-365.5405883789063	287.6860046386719	-1195.202026367188	-324.1910400390626	284.1499938964844	-1176.37353515625	-316.0346679687501	205.601791381836	-1146.080322265625	-374.0943908691407	82.97421264648439	-1170.19580078125	-354.3647766113282	107.5745315551758	-1086.596923828125	-422.256805419922	45.60481643676759	-1120.189575195313	-195.1331481933594	67.44683837890626	-1116.596435546875	-200.7051696777344	69.47097778320314	-1153.860107421875	-240.1190948486329	39.48408508300782	-1200.603149414063	-403.814666748047	801.2071533203127	-768.5870361328127	-367.0036315917969	747.7864379882814	-753.9000854492189	-333.3176574707032	749.5409545898439	-756.4835205078126	-390.5518493652345	666.9497070312501	-764.4655761718751	-364.6405639648438	522.8429565429689	-749.6543579101564	-344.6767272949219	486.0581054687501	-873.6549072265627	-319.2056274414063	346.6289672851563	-799.1113281250002	-352.8878784179688	280.2238159179688	-720.7935791015626	-324.1112976074219	270.1109619140626	-758.2758789062501	-341.1012573242188	219.8804473876954	-782.7864379882815	-398.1204223632814	96.65264129638675	-709.9800415039064	-379.5220336914063	108.0221939086914	-799.146423339844	-460.3478393554689	51.09699630737306	-767.0205688476564	-233.2364501953126	59.32543182373048	-746.5646972656251	-238.5807342529297	62.98075485229494	-705.1248779296876	-284.3784790039063	39.10187911987305	-663.2222900390626	
1140	5.695	-153.820068359375	1562.188110351563	-1125.389038085938	-285.0604553222657	1609.145263671875	-1135.12060546875	-291.2655334472657	1630.38330078125	-1001.066345214844	-391.7118530273439	1531.597534179688	-1041.043701171875	-485.0290832519532	1193.047119140625	-1000.558715820313	-283.0915527343751	1424.58154296875	-1035.225708007813	-322.7672424316407	1442.778930664063	-1206.452026367188	-409.554168701172	1348.359252929688	-1312.351318359375	-392.3509521484376	1300.936279296875	-1311.575439453125	-441.117645263672	1296.701904296875	-1348.316528320313	-479.437469482422	1209.116455078125	-1388.995361328125	-548.9611206054689	1197.669921875	-1342.911254882813	-392.4871520996095	1021.029235839844	-1224.18994140625	-360.4497680664063	995.8347167968752	-1285.489379882813	-348.8294372558594	1015.613037109375	-1181.098022460938	-292.1846313476563	1473.655151367188	-865.9160156250002	-389.945281982422	1404.2236328125	-720.8329467773439	-378.3393554687501	1356.713500976563	-713.1569824218751	-427.5100708007814	1363.198608398438	-679.1362304687501	-458.8920898437501	1289.475219726563	-630.6071777343751	-531.1029663085939	1277.167358398438	-688.9485473632814	-438.1926269531251	1050.9970703125	-755.2028198242189	-401.0949707031251	1034.256225585938	-691.6277465820314	-375.1403503417969	1034.750366210938	-792.2683715820315	-308.0276489257813	1032.335571289063	-1117.439575195313	-314.2515869140626	1028.022094726563	-862.3826293945315	-495.6258544921876	1079.896484375	-989.2684326171877	-505.1976928710939	1050.995727539063	-1017.988952636719	-509.3262023925782	1048.097412109375	-962.266784667969	-365.5137023925782	719.5381469726564	-1195.71337890625	-336.7833251953126	640.5870971679689	-1181.014526367188	-297.4700012207032	640.9022216796876	-1150.382446289063	-369.0820007324219	591.6799316406251	-1179.114990234375	-371.4614562988282	530.5584716796876	-1185.699096679688	-378.5498657226563	513.3285522460939	-1048.39990234375	-309.3609008789063	332.1267395019532	-1144.414428710938	-365.5572204589844	287.6641540527344	-1195.1982421875	-324.1386718750001	284.1402282714844	-1176.271240234375	-316.0212707519532	205.5581207275391	-1146.0283203125	-374.1387329101563	82.93799591064455	-1170.159057617188	-354.3201293945313	107.5290832519532	-1086.573608398438	-422.249481201172	45.63796997070313	-1120.215087890625	-195.1067962646485	67.45204925537111	-1116.558349609375	-200.6943359375001	69.40651702880861	-1153.835083007813	-240.0548553466797	39.30743789672852	-1200.480224609375	-404.1692199707032	801.2077636718752	-768.3479003906252	-367.2965698242188	747.7639770507814	-753.7371215820314	-333.6226196289063	749.5792236328126	-756.2982788085939	-390.8892517089845	666.9619140625001	-764.3914794921876	-365.0844726562501	522.9372558593751	-749.5614624023439	-345.1602478027344	486.0922851562501	-873.5449218750002	-320.1939392089844	346.5982055664063	-799.004089355469	-354.0387878417969	280.2210998535157	-720.8809204101564	-325.3016967773438	270.0674133300782	-758.2997436523439	-342.3530578613282	219.8974609375001	-782.7666015625002	-399.7362365722657	96.86025238037112	-710.0551147460939	-381.4397583007813	108.1517715454102	-799.297790527344	-462.3135070800782	51.36771392822267	-766.8197021484376	-235.2414550781251	59.12317276000978	-747.0350952148439	-240.218978881836	62.80078887939455	-705.6311035156251	-286.0457763671876	39.05101394653321	-663.5832519531251	
